<?xml version="1.0" encoding="utf-8"?>
<!-- Generator: Adobe Illustrator 23.0.1, SVG Export Plug-In . SVG Version: 6.00 Build 0)  -->
<svg version="1.1" id="Layer_1" xmlns="http://www.w3.org/2000/svg" xmlns:xlink="http://www.w3.org/1999/xlink" x="0px" y="0px"
	 viewBox="0 0 100 100" style="enable-background:new 0 0 100 100;" xml:space="preserve">
<style type="text/css">
	.st0{fill:#333333;}
</style>
<g>
	<path class="st0" d="M83.74542,18.78198C75.33698,9.69958,63.32391,4,50,4C36.67627,4,24.66339,9.69928,16.255,18.78149
		c-0.08331,0.07556-0.15912,0.15979-0.2345,0.24597C8.55792,27.20746,4,38.08099,4,50s4.55792,22.79248,12.02051,30.97247
		c0.07538,0.08618,0.15118,0.17041,0.2345,0.24603C24.66339,90.30066,36.67627,96,50,96
		c13.30078,0,25.29468-5.68054,33.70111-14.73553c0.04578-0.03979,0.08319-0.09009,0.12677-0.133
		C91.3786,72.93329,96,61.99786,96,50c0-11.91931-4.55811-22.79291-12.02112-30.97314
		C83.90381,18.9411,83.82843,18.8573,83.74542,18.78198z M34.92023,12.88159c-1.93115,3.4859-3.58264,7.14288-4.93121,10.95007
		c-2.41034-0.95508-4.75641-2.08447-7.01459-3.39166C26.4505,17.25897,30.48993,14.68811,34.92023,12.88159z M18.82562,24.8587
		c3.00098,1.83197,6.14618,3.38599,9.39557,4.64459c-1.53906,5.69049-2.42749,11.5661-2.64801,17.53351H10.04761
		C10.66241,38.67407,13.84857,31.01801,18.82562,24.8587z M10.04761,52.9632h15.52557
		c0.22052,5.96887,1.10944,11.84546,2.64801,17.53357c-3.2525,1.26031-6.39648,2.81384-9.39557,4.64453
		C13.84857,68.98199,10.66241,61.32599,10.04761,52.9632z M22.97443,79.56006c2.25665-1.3064,4.60229-2.43567,7.01495-3.39185
		c1.349,3.80829,3.00043,7.46509,4.93085,10.9502C30.48999,85.31201,26.45062,82.74097,22.97443,79.56006z M47.0368,89.95239
		c-1.24091-0.09119-2.46661-0.23633-3.67389-0.43854c-3.20892-4.67926-5.81165-9.78076-7.74994-15.22498
		c3.72992-1.0285,7.56451-1.64771,11.42383-1.8573V89.95239z M47.0368,66.4845c-4.47461,0.21936-8.8877,0.93701-13.17932,2.13898
		c-1.34961-5.08569-2.13708-10.3313-2.34998-15.66028h15.5293V66.4845z M47.0368,47.0368h-15.5293
		c0.21271-5.32794,1.00012-10.57281,2.35022-15.66095c4.29547,1.20282,8.70709,1.92023,13.17908,2.13965V47.0368z M47.0368,27.56787
		c-3.85638-0.20959-7.69092-0.82861-11.42383-1.85767c1.93732-5.44165,4.54022-10.54382,7.74982-15.22412
		c1.2074-0.20221,2.43311-0.34729,3.67401-0.43848V27.56787z M77.0257,20.43988c-2.25677,1.3064-4.60229,2.43573-7.01501,3.39191
		c-1.349-3.80841-3.00037-7.46509-4.93097-10.95032C69.51007,14.68799,73.5495,17.25897,77.0257,20.43988z M52.9632,10.04761
		c1.24103,0.09119,2.46661,0.23627,3.67389,0.43848c3.20905,4.67932,5.81171,9.78082,7.74994,15.22498
		c-3.7298,1.0285-7.56445,1.64771-11.42383,1.8573V10.04761z M52.9632,33.5155c4.47473-0.21942,8.8877-0.93701,13.17938-2.13904
		c1.34961,5.08569,2.13715,10.3313,2.35004,15.66034H52.9632V33.5155z M52.9632,52.9632h15.52942
		c-0.21283,5.32788-1.00012,10.57281-2.35022,15.66089c-4.29547-1.20282-8.70721-1.92023-13.1792-2.13959V52.9632z
		 M56.63708,89.51385c-1.20728,0.20221-2.43286,0.34735-3.67389,0.43854V72.43207c3.85638,0.20959,7.69092,0.82861,11.42383,1.85773
		C62.44971,79.73138,59.84692,84.83356,56.63708,89.51385z M65.0799,87.11841c1.93109-3.48602,3.5827-7.14294,4.93109-10.95013
		c2.4104,0.95514,4.75653,2.08453,7.01471,3.39172C73.54962,82.74097,69.51019,85.31189,65.0799,87.11841z M81.1745,75.1413
		c-3.0011-1.83203-6.1463-3.38599-9.39563-4.64459c1.539-5.69049,2.42743-11.5661,2.64801-17.53351h15.52563
		C89.33771,61.32587,86.15143,68.98199,81.1745,75.1413z M74.42688,47.0368c-0.22058-5.96893-1.10938-11.84552-2.64801-17.53363
		c3.25244-1.26031,6.39642-2.81378,9.39563-4.64447c4.97693,6.1593,8.16321,13.81531,8.77802,22.1781H74.42688z"/>
</g>
</svg>
